<svg width="68" height="68" viewBox="0 0 68 68" fill="none" xmlns="http://www.w3.org/2000/svg">
<path d="M65.9106 44.9477C65.6079 44.7914 65.4832 44.4237 65.6283 44.1167C65.7437 43.7477 66.0585 43.5047 66.3282 43.5894C66.5993 43.6744 66.723 44.0469 66.6081 44.419C66.4931 44.7914 66.1735 45.031 65.9106 44.9461V44.9477Z" fill="#F6890E"/>
<path d="M54.3489 54.3588C53.8265 54.3497 53.4094 53.919 53.4176 53.3965C53.4258 52.8731 53.8566 52.4562 54.3799 52.4647C54.9028 52.4735 55.3199 52.9048 55.3112 53.4271V53.4295C55.3025 53.9524 54.8712 54.3676 54.3489 54.3588Z" fill="#F6890E"/>
<path d="M52.1322 49.2314C51.7723 49.2276 51.4842 48.9333 51.4891 48.5738C51.4929 48.2138 51.7874 47.9252 52.1472 47.9296C52.5067 47.933 52.7943 48.2284 52.7904 48.5883V48.5931C52.7836 48.9501 52.4902 49.2358 52.1322 49.2314Z" fill="#F6890E"/>
<path d="M62.5864 40.5958C62.3225 40.7244 62.0048 40.6148 61.8763 40.3504C61.7473 40.0872 61.8574 39.7686 62.1208 39.6399C62.3851 39.5108 62.7038 39.6214 62.8323 39.8853C62.8488 39.9207 62.8624 39.9576 62.8711 39.9957C62.9531 40.2403 62.8275 40.5042 62.5864 40.5958Z" fill="#F6890E"/>
<path d="M48.9402 45.7517C48.331 45.7409 47.8455 45.2382 47.8571 44.6284C47.8678 44.0202 48.3698 43.5346 48.979 43.5458C49.5873 43.5563 50.0733 44.0583 50.0631 44.6667C50.0524 45.2761 49.5494 45.7614 48.9402 45.7517Z" fill="#F6890E"/>
<path d="M53.9125 45.6384C52.6039 45.6162 51.562 44.5378 51.5843 43.2297C51.6062 41.9221 52.6849 40.8791 53.9921 40.9013C55.3002 40.9243 56.3426 42.0027 56.3212 43.3098C56.3018 44.6155 55.2265 45.6587 53.9203 45.6394H53.9144L53.9125 45.6384Z" fill="#F6890E"/>
<path d="M54.3387 60.9001C53.2624 60.8851 52.4039 59.9994 52.4189 58.9236C52.4349 57.8483 53.3201 56.9884 54.3964 57.0047C55.4708 57.0202 56.3293 57.9026 56.3157 58.978C56.3011 60.0528 55.4179 60.9138 54.3426 60.9001H54.3387Z" fill="#F6890E"/>
<path d="M57.365 50.8279C56.3702 50.8083 55.5796 49.9856 55.5995 48.9915C55.6199 47.9971 56.4415 47.2061 57.4368 47.2258C58.4273 47.2463 59.2159 48.061 59.2014 49.0515C59.1859 50.0488 58.3662 50.8433 57.3694 50.8279H57.365Z" fill="#F6890E"/>
<path d="M60.4311 55.6355C59.8607 56.187 58.9513 56.1724 58.3993 55.6026C57.8478 55.0323 57.8624 54.1223 58.4328 53.5708C58.9843 53.0357 59.8597 53.0308 60.4185 53.5591C60.9923 54.1304 60.9976 55.0574 60.4311 55.6355Z" fill="#F6890E"/>
<path d="M64.2081 49.9319C63.7381 50.4873 62.9063 50.5557 62.3509 50.0856C61.796 49.6153 61.7271 48.7834 62.1976 48.2286C62.6269 47.7221 63.3656 47.6134 63.9224 47.9762C64.5404 48.4385 64.6684 49.3125 64.2081 49.9319Z" fill="#F6890E"/>
<path d="M42.9626 48.1024C42.3514 48.4789 41.8155 48.9935 41.4114 49.5883L41.1679 49.9762L40.7067 49.8583C40.0499 49.692 39.3714 49.6031 38.6879 49.5948C37.8566 49.5697 37.0315 49.671 36.2259 49.8534C34.2634 50.2784 32.2457 50.4801 30.2371 50.4508C23.4155 50.3468 17.0295 47.6063 12.2543 42.7345C10.0037 40.413 8.2207 37.6974 6.95813 34.7604C4.8065 40.9698 5.0728 48.1256 7.83073 55.4391C8.38562 56.1012 8.9565 56.7494 9.55843 57.3688C15.9401 63.9298 24.1261 67.3683 33.887 67.5875C36.4955 67.6722 39.1356 67.1722 41.5293 66.1517L41.7791 66.0338L42.0463 66.1385C43.1052 66.5785 44.3158 66.076 44.7538 65.0236C44.78 64.9576 44.8053 64.8864 44.8266 64.8151L45.0371 64.1398L45.6904 64.3842C46.5606 64.714 47.5045 64.6844 48.3523 64.3011C49.1997 63.9181 49.8467 63.2299 50.1766 62.3607C50.811 60.6781 50.0369 58.7565 48.413 57.9862L47.3143 57.454L48.3543 56.8273C49.5155 56.109 50.3313 54.9789 50.647 53.6466C50.9623 52.3131 50.7402 50.9384 50.0204 49.7726C48.5347 47.3678 45.3689 46.6158 42.9626 48.1024Z" fill="#F6890E"/>
<path d="M54.041 12.8235C52.1828 10.8789 51.5353 8.48661 52.5941 7.47342C53.6515 6.4617 56.0156 7.21634 57.8738 9.15897C59.732 11.1011 60.3795 13.4942 59.3245 14.5081C58.2686 15.5227 55.8977 14.7696 54.041 12.8235Z" fill="#3A80F7"/>
<path d="M60.1816 20.5125C59.0941 18.5266 59.1746 16.3875 60.3537 15.7419C61.5334 15.0969 63.3789 16.1858 64.4654 18.1821C65.5529 20.1787 65.469 22.3064 64.2903 22.95C63.1117 23.5935 61.2661 22.5064 60.1816 20.5125Z" fill="#3A80F7"/>
<path d="M63.8919 28.9699C63.5562 27.0954 64.1528 25.4273 65.2185 25.2327C66.2841 25.0378 67.4351 26.4055 67.7673 28.2832C68.1001 30.1611 67.5054 31.8264 66.433 32.0155C65.3596 32.2047 64.2232 30.8427 63.8919 28.9699Z" fill="#3A80F7"/>
<path d="M55.1744 31.0018C53.9415 31.8473 52.2569 31.5326 51.412 30.2994C50.5675 29.067 50.8814 27.3824 52.1148 26.5375C53.3478 25.692 55.0323 26.0069 55.8773 27.2394C55.966 27.369 56.0431 27.5062 56.1086 27.6498C56.7654 28.8351 56.3492 30.3275 55.1744 31.0018Z" fill="#3A80F7"/>
<path d="M44.5715 32.3733C42.2074 32.3365 40.322 30.3907 40.3579 28.0269C40.3953 25.6639 42.3408 23.7774 44.7049 23.8145C47.067 23.8516 48.9523 25.7942 48.9179 28.1563C48.8801 30.5203 46.935 32.4068 44.5715 32.3733Z" fill="#3A80F7"/>
<path d="M56.4258 21.4756C55.6362 21.7389 54.7796 21.334 54.4808 20.5574C53.9662 20.0199 53.9851 19.1672 54.5215 18.6521C55.0599 18.1376 55.9121 18.156 56.4268 18.6943C56.6028 18.8777 56.7231 19.1076 56.7736 19.3569C57.2455 20.0438 57.0918 20.9793 56.4258 21.4794V21.4756Z" fill="#3A80F7"/>
<path d="M60.4164 27.6193C59.8382 27.6725 59.3251 27.2485 59.2717 26.6704C59.2363 26.2941 59.4061 25.9289 59.715 25.7114C60.2932 25.6577 60.8049 26.0825 60.8597 26.6606C60.8947 27.0361 60.7249 27.4025 60.4164 27.6193Z" fill="#3A80F7"/>
<path d="M54.495 36.8252C53.9861 37.0376 53.4012 36.8037 53.179 36.2998C52.9001 35.8512 53.0384 35.2627 53.487 34.9845C53.9357 34.7069 54.5241 34.8442 54.802 35.2928C54.8359 35.3473 54.8636 35.404 54.8859 35.4631C55.1493 35.9476 54.9747 36.5538 54.495 36.8252Z" fill="#3A80F7"/>
<path d="M51.571 23.1009C51.0748 23.5714 50.2919 23.5495 49.8224 23.0544C49.3524 22.5582 49.3737 21.7754 49.8699 21.3053C50.3652 20.8358 51.148 20.8567 51.6175 21.3524C51.6588 21.3961 51.6966 21.4421 51.731 21.4911C52.1293 21.98 52.0584 22.6992 51.571 23.1009Z" fill="#3A80F7"/>
<path d="M58.6211 40.405C58.2437 40.6167 57.766 40.4822 57.5535 40.1047C57.342 39.7275 57.4764 39.2498 57.8538 39.0383C58.2316 38.8259 58.7098 38.9607 58.9213 39.3374C58.931 39.355 58.9397 39.374 58.9485 39.3914C59.1357 39.7624 58.9892 40.2139 58.6211 40.405Z" fill="#3A80F7"/>
<path d="M31.1548 21.5838C30.6115 21.576 30.1774 21.1282 30.1857 20.5856C30.1934 20.0422 30.6397 19.6086 31.1829 19.6164C31.7257 19.6242 32.1593 20.0709 32.1525 20.6127C32.1438 21.1559 31.6975 21.5896 31.1548 21.5838Z" fill="#3A80F7"/>
<path d="M61.157 36.0253C60.231 36.2025 59.2842 35.359 59.0475 34.1285C58.7148 33.0842 59.2658 31.9638 60.295 31.5897C61.2225 31.4053 62.1629 32.2567 62.4011 33.4805C62.7372 34.5266 62.1853 35.6505 61.1531 36.0253H61.157Z" fill="#3A80F7"/>
<path d="M66.3676 40.3103C65.6284 40.2214 65.1332 39.2655 65.2642 38.1784C65.3946 37.0915 66.0994 36.2795 66.8338 36.3668C67.5686 36.4545 68.0696 37.4072 67.9411 38.4923C67.8126 39.5783 67.1112 40.4 66.3676 40.3103Z" fill="#3A80F7"/>
<path d="M61.0674 45.9357C60.1579 46.103 59.2854 45.5015 59.1175 44.593C58.9512 43.6836 59.5517 42.811 60.4606 42.6437C61.3696 42.4759 62.2422 43.0773 62.4095 43.9857C62.4197 44.0362 62.4265 44.0862 62.4313 44.1366C62.5482 45.0091 61.9385 45.8125 61.0674 45.9357Z" fill="#3A80F7"/>
<path d="M48.4913 39.832C47.3325 39.814 46.4061 38.8608 46.4226 37.7017C46.4405 36.5424 47.3936 35.6166 48.5529 35.6339C49.7126 35.6504 50.6381 36.6039 50.6211 37.7632V37.7656C50.6022 38.9239 49.6495 39.8484 48.4913 39.832Z" fill="#3A80F7"/>
<path d="M37.3661 24.5134C36.1069 24.495 35.101 23.4585 35.1194 22.1993C35.1388 20.9401 36.1748 19.9342 37.4345 19.9521C38.6941 19.9709 39.7001 21.0071 39.6807 22.2667V22.2687C39.6603 23.5268 38.6248 24.5309 37.3661 24.5134Z" fill="#3A80F7"/>
<path d="M49.515 11.0835C49.1386 10.6597 48.6997 10.2998 48.2117 10.016L46.954 9.28406L48.3344 8.82483C49.0557 8.6084 49.6455 8.10046 49.9632 7.42981C50.0902 7.14417 50.1572 6.83215 50.1601 6.50867C50.0384 4.94202 48.9921 3.54993 47.4948 2.9873C46.8429 2.69336 46.174 2.54114 45.4838 2.52563C45.1298 2.51392 44.783 2.5575 44.4386 2.63965L44.1388 2.71375L43.889 2.5188C40.7862 0.249268 36.7769 0.0805664 35.2665 0.0184326L34.8993 0.000854492C34.781 0 34.6612 0 34.5433 0C19.4717 0 10.8365 7.8678 6.44693 13.8579C5.87265 14.6417 5.36772 15.3951 4.9341 16.0922C4.31956 17.0496 3.77438 18.0565 3.31261 19.093C1.82015 22.2656 0.835526 25.5883 0.34903 29.0117C0.299553 29.3879 0.243775 29.7634 0.20691 30.1407C0.203034 30.1782 0.200119 30.2174 0.196244 30.2557C0.144341 30.705 0.1036 31.1554 0.0720754 31.6066C0.0516972 31.9193 0.0429692 32.2347 0.0303578 32.5494C0.0216298 32.7871 0.00514268 33.0254 0.00222825 33.262C-0.00456191 33.8751 0.00416612 34.4862 0.02842 35.0959C0.0303578 35.1348 0.0342412 35.1735 0.0361867 35.2129C0.0565495 35.6824 0.0909886 36.1504 0.129792 36.6171C0.150162 36.896 0.18557 37.1722 0.212731 37.4498C0.588158 40.9233 1.47432 44.3088 2.87899 47.5547C3.31358 48.6056 3.82628 49.6243 4.40736 50.5895C4.85407 51.3558 5.33911 52.0966 5.84209 52.8254C4.92876 49.6738 4.47282 46.4193 4.49223 43.1174C4.49999 39.7572 5.16789 36.4427 6.4028 33.3566C7.77546 29.9263 9.84803 26.7784 12.5279 24.1763C17.4496 19.4506 23.8943 16.9109 30.7387 17.0103C32.7477 17.0458 34.7528 17.3057 36.7008 17.7883C37.5079 17.9958 38.3402 18.1102 39.1749 18.1298C39.756 18.1433 40.3318 18.0905 40.8954 17.9861L41.263 17.9167L41.5085 18.1898C43.47 20.3998 46.8594 20.5975 49.0664 18.6404C51.2733 16.6799 51.4741 13.2905 49.515 11.0835Z" fill="#3A80F7"/>
</svg>
